<?xml version="1.0" encoding="UTF-8" standalone="no"?>
<!-- Created with Inkscape (http://www.inkscape.org/) -->

<svg
   xmlns:dc="http://purl.org/dc/elements/1.1/"
   xmlns:cc="http://creativecommons.org/ns#"
   xmlns:rdf="http://www.w3.org/1999/02/22-rdf-syntax-ns#"
   xmlns:svg="http://www.w3.org/2000/svg"
   xmlns="http://www.w3.org/2000/svg"
   xmlns:sodipodi="http://sodipodi.sourceforge.net/DTD/sodipodi-0.dtd"
   xmlns:inkscape="http://www.inkscape.org/namespaces/inkscape"
   width="744.09448819"
   height="1052.3622047"
   id="svg2"
   version="1.1"
   inkscape:version="0.48.4 r9939"
   sodipodi:docname="drawing.svg">
  <defs
     id="defs4" />
  <sodipodi:namedview
     id="base"
     pagecolor="#ffffff"
     bordercolor="#666666"
     borderopacity="1.0"
     inkscape:pageopacity="0.0"
     inkscape:pageshadow="2"
     inkscape:zoom="0.45254834"
     inkscape:cx="-52.237292"
     inkscape:cy="717.95364"
     inkscape:document-units="px"
     inkscape:current-layer="layer1"
     showgrid="false"
     showguides="false"
     inkscape:guide-bbox="true"
     inkscape:window-width="1366"
     inkscape:window-height="710"
     inkscape:window-x="0"
     inkscape:window-y="0"
     inkscape:window-maximized="1">
    <sodipodi:guide
       orientation="1,0"
       position="116.42857,922.14286"
       id="guide3050" />
    <sodipodi:guide
       orientation="1,0"
       position="153.57143,887.14286"
       id="guide3052" />
    <sodipodi:guide
       orientation="0,1"
       position="208.09142,890.95455"
       id="guide3054" />
    <sodipodi:guide
       orientation="0,1"
       position="-8.5714286,877.85714"
       id="guide3056" />
    <sodipodi:guide
       orientation="0,1"
       position="157.07872,853.32636"
       id="guide3058" />
    <sodipodi:guide
       orientation="0,1"
       position="142.17897,840.69946"
       id="guide3060" />
    <sodipodi:guide
       orientation="1,0"
       position="128.28937,826.30478"
       id="guide3062" />
    <sodipodi:guide
       orientation="1,0"
       position="141.16882,803.57635"
       id="guide3064" />
    <sodipodi:guide
       orientation="0,1"
       position="179.30208,865.95327"
       id="guide3066" />
    <sodipodi:guide
       orientation="0,1"
       position="153.57143,828.57763"
       id="guide3068" />
    <sodipodi:guide
       orientation="0,1"
       position="162.85714,691.42857"
       id="guide3072" />
    <sodipodi:guide
       orientation="1,0"
       position="166.07143,739.28572"
       id="guide3078" />
    <sodipodi:guide
       orientation="1,0"
       position="215.35714,701.78572"
       id="guide3080" />
    <sodipodi:guide
       orientation="1,0"
       position="263.92857,678.92857"
       id="guide3082" />
    <sodipodi:guide
       orientation="1,0"
       position="312.85714,656.42857"
       id="guide3084" />
    <sodipodi:guide
       orientation="1,0"
       position="363.21429,639.28572"
       id="guide3086" />
    <sodipodi:guide
       orientation="1,0"
       position="423.92857,611.07143"
       id="guide3088" />
    <sodipodi:guide
       orientation="1,0"
       position="473.57143,623.21429"
       id="guide3090" />
    <sodipodi:guide
       orientation="1,0"
       position="-67.5,640.35714"
       id="guide3953" />
    <sodipodi:guide
       orientation="1,0"
       position="-24.642857,618.57143"
       id="guide3955" />
    <sodipodi:guide
       orientation="0,1"
       position="-36.428571,676.42857"
       id="guide3957" />
    <sodipodi:guide
       orientation="0,1"
       position="-47.857143,636.78572"
       id="guide3959" />
    <inkscape:grid
       type="xygrid"
       id="grid3920" />
  </sodipodi:namedview>
  <metadata
     id="metadata7">
    <rdf:RDF>
      <cc:Work
         rdf:about="">
        <dc:format>image/svg+xml</dc:format>
        <dc:type
           rdf:resource="http://purl.org/dc/dcmitype/StillImage" />
        <dc:title></dc:title>
      </cc:Work>
    </rdf:RDF>
  </metadata>
  <g
     inkscape:label="Layer 1"
     inkscape:groupmode="layer"
     id="layer1">
    <g
       id="g3971"
       transform="translate(354.92052,15.467961)">
      <path
         inkscape:connector-curvature="0"
         d="m -70.473766,388.16922 c 0.589716,-0.89184 1.086552,-1.8385 1.677539,-2.72947 0.653563,-0.92995 1.424754,-1.77137 2.263853,-2.5357 2.230501,-1.73931 4.660527,-3.47045 7.365301,-4.31684 1.156713,-0.33634 2.328514,-0.63248 3.519504,-0.82423 0.672738,-0.13494 1.367383,-0.0771 2.038757,-0.21494 0.350296,-0.0719 0.692417,-0.17928 1.04035,-0.26187 0.96874,-0.25062 1.96196,-0.33626 2.957522,-0.38544 0.897672,-0.0296 1.79626,-0.0281 2.694344,-0.0241 0.895089,5.8e-4 1.790168,0.004 2.685256,0.004 1.042182,-0.0171 2.05642,0.26914 3.0719,0.46776 0.92356,0.19847 1.766346,0.59359 2.583866,1.05456 0.850224,0.52159 1.742519,0.96654 2.580543,1.51169 0.918717,0.49568 1.827206,0.98499 2.683496,1.58554 1.017573,0.56153 1.978147,1.20637 2.881718,1.93585 0.788529,0.65081 1.518229,1.36148 2.175795,2.14333 0.559547,0.72174 1.137597,1.44264 1.621954,2.21783 0.649643,0.9071 1.04541,1.92778 1.299958,3.00552 0.240665,0.92525 0.397462,1.86302 0.479473,2.81449 0.06634,0.89099 0.06416,1.78512 0.06898,2.67804 -0.01289,0.90692 0.0243,1.81439 -0.03711,2.71972 -0.08452,0.93484 -0.273555,1.85264 -0.600962,2.73201 -0.377261,1.05314 -0.886583,2.03971 -1.458952,2.9977 -0.57614,0.93071 -1.273809,1.77746 -2.036479,2.55993 -0.74598,0.70671 -1.578395,1.31235 -2.399869,1.92667 -0.856463,0.62556 -1.740536,1.20969 -2.595822,1.83711 -0.884846,0.58462 -1.754144,1.19262 -2.669837,1.72858 -2.303592,1.10509 -4.585894,2.99851 -7.167263,3.70757 -0.905142,0.22583 -1.800818,0.52564 -2.677424,0.85016 -0.869105,0.31469 -1.794802,0.41563 -2.712236,0.4637 -0.899456,0.0399 -1.799951,0.0317 -2.700006,0.0311 -0.801451,-0.0337 -1.632165,-0.13777 -2.408184,-0.35329 -1.026164,-0.17209 -1.910745,-0.69173 -2.780905,-1.22962 -1.017692,-0.59846 -1.812672,-1.46937 -2.615495,-2.31822 -0.714737,-0.8584 -1.433773,-1.71218 -2.105493,-2.60476 -0.707684,-0.90185 -1.409908,-1.80784 -2.150605,-2.68313 -0.709603,-0.77562 -1.338164,-1.61011 -1.881121,-2.50831 -0.439629,-0.83012 -1.111876,-1.46773 -1.783584,-2.10603 -0.342265,-0.27118 -0.689448,-0.53589 -1.032816,-0.80567 0,0 4.470028,-2.8144 4.470028,-2.8144 l 0,0 c 0.35678,0.27816 0.71918,0.54997 1.05768,0.85063 0.703362,0.67191 1.383848,1.3634 1.850345,2.2291 0.529485,0.87293 1.14693,1.68287 1.82582,2.4465 0.741343,0.88805 1.461108,1.79462 2.179992,2.70049 0.65381,0.88025 1.349846,1.72712 2.064755,2.55857 0.772057,0.81807 1.548348,1.64033 2.540826,2.19673 0.852426,0.50156 1.722981,0.92919 2.714255,1.07653 0.767242,0.14639 1.544466,0.28261 2.328448,0.26002 0.891798,3.6e-4 1.784793,6.3e-4 2.674838,-0.0623 0.896831,-0.0887 1.784689,-0.23879 2.628142,-0.5706 0.892961,-0.28745 1.772494,-0.61412 2.683785,-0.84116 1.984256,-0.74037 6.045861,-3.01318 -1.925503,1.41823 0.918103,-0.53399 1.799322,-1.1089 2.693036,-1.68213 0.864672,-0.6167 1.71748,-1.24783 2.601382,-1.83657 0.826634,-0.59007 1.636618,-1.20678 2.413576,-1.86075 0.8134,-0.70591 1.490917,-1.55798 2.10533,-2.43964 0.586803,-0.9218 1.130859,-1.87115 1.474092,-2.91436 0.3845,-0.81691 0.565004,-1.69304 0.668842,-2.58767 0.110114,-0.88488 0.03277,-1.78193 0.0555,-2.67216 0.002,-0.8816 0.0023,-1.7638 -0.04554,-2.6444 -0.06591,-0.92953 -0.197437,-1.85056 -0.442707,-2.75159 -0.208828,-1.03119 -0.568788,-1.99828 -1.211473,-2.84515 -0.479655,-0.74985 -1.041826,-1.45202 -1.58635,-2.15513 -0.636619,-0.75451 -1.346489,-1.43708 -2.111791,-2.06173 -0.898743,-0.71404 -1.86007,-1.33061 -2.852103,-1.90747 -0.864716,-0.57563 -1.798739,-1.02117 -2.681454,-1.5669 -0.840207,-0.52492 -1.730017,-0.95826 -2.577347,-1.47083 -0.788742,-0.41539 -1.598075,-0.76907 -2.481415,-0.93201 -0.996573,-0.20579 -1.997638,-0.42116 -3.022632,-0.37501 -0.894602,-0.002 -1.789203,-0.002 -2.683805,-0.005 -0.891804,0.003 -1.784302,-0.003 -2.675005,0.0492 -0.975518,0.0682 -1.942539,0.20294 -2.891096,0.4476 -1.022722,0.23481 -2.057452,0.30841 -3.094932,0.45121 -1.173772,0.22031 -2.338488,0.51345 -3.46902,0.89894 -1.932315,0.78297 -0.582239,0.26359 3.511857,-2.14967 0.161263,-0.0951 -0.329271,0.17859 -0.488502,0.27701 -0.472645,0.29215 -0.902624,0.6443 -1.355783,0.96426 -0.854352,0.7244 -1.643978,1.51567 -2.314983,2.41694 -0.618143,0.85981 -1.133419,1.78144 -1.646309,2.70643 0,0 -4.860723,2.12673 -4.860723,2.12673 z"
         id="path3965"
         style="fill:#000000;fill-opacity:1" />
      <path
         inkscape:connector-curvature="0"
         d="m -29.290388,400.63589 c -1.357432,-0.0924 -2.683809,-0.28345 -4.012041,-0.57276 -1.27468,-0.29759 -2.582975,-0.37278 -3.886326,-0.42153 -1.177163,-0.0313 -2.354984,-0.026 -3.532464,-0.0238 -1.067128,0.006 -2.134252,0.005 -3.201384,0.005 -1.004489,0.0213 -1.986408,0.0942 -2.894658,-0.39204 -0.741224,-0.7346 -0.988015,-1.79809 -1.309391,-2.76112 -0.338868,-0.87698 -0.901399,-1.63612 -1.582947,-2.27557 -0.718814,-0.64945 -1.552798,-1.14845 -2.377023,-1.64989 -0.910451,-0.48886 -1.848451,-0.8457 -2.865795,-1.02014 -0.886551,-0.12363 -1.783771,-0.11995 -2.676925,-0.12018 -0.358387,0.0509 -0.532247,0.0537 -0.873337,0.19163 -0.132039,0.0534 -0.501681,0.26982 -0.377885,0.1994 7.713818,-4.38764 4.797,-3.21428 3.63752,-1.81835 -0.471826,0.695 -0.55431,1.51571 -0.606121,2.33063 -0.02026,0.86044 -0.06221,1.72535 0.0118,2.58392 0.0344,0.80159 0.33373,1.47485 0.710931,2.16347 0.416243,0.84346 1.088863,1.42623 1.808827,1.99844 0.815547,0.62435 1.795711,0.87491 2.796705,0.99376 0.984992,0.13832 1.899834,0.0503 2.825068,-0.30537 1.934169,-1.15293 -0.968234,0.58098 -3.702135,2.09522 -0.136244,0.0755 0.256572,-0.17693 0.379487,-0.27258 0.379935,-0.29566 0.720589,-0.63713 1.063557,-0.97353 1.857099,-1.9943 4.128667,-2.80666 6.631003,-4.17094 0.392419,-0.0528 0.755302,-0.0116 1.13705,0.0732 0,0 -4.326135,3.0566 -4.326135,3.0566 l 0,0 c -0.3404,-0.01 -0.672452,-0.009 -0.997892,0.11166 1.402665,-0.8192 2.810706,-1.62925 4.207995,-2.45759 0.116638,-0.0691 -0.247569,0.11176 -0.365061,0.17945 -0.533336,0.30724 -0.9844,0.75501 -1.413401,1.18862 -1.901383,1.94286 -4.108516,3.53391 -6.778379,4.3971 -0.984518,0.25728 -1.969586,0.2859 -2.975236,0.11535 -1.063756,-0.19144 -2.082806,-0.54432 -2.939288,-1.22719 -0.77894,-0.60951 -1.476999,-1.27735 -1.938043,-2.16847 -0.408353,-0.74681 -0.765862,-1.47583 -0.81002,-2.34569 -0.113652,-0.8809 -0.04481,-1.77502 -0.04773,-2.66153 0.03834,-0.88523 0.08296,-1.78061 0.482122,-2.59129 1.300265,-2.29465 4.154623,-3.61185 6.736698,-3.78928 0.911951,0.0132 1.829764,0.0266 2.727263,0.20777 1.047184,0.2391 2.024432,0.65437 2.963804,1.17577 0.856621,0.52102 1.713924,1.05858 2.449424,1.74567 0.714537,0.72268 1.334375,1.5374 1.695079,2.49739 0.278895,0.8097 0.45668,1.79137 1.112594,2.38248 0.874816,0.33583 1.821014,0.19012 2.739298,0.21846 1.066756,-10e-4 2.133506,-0.007 3.200272,-0.004 1.177969,5.8e-4 2.356109,0.003 3.533324,0.0525 1.321606,0.068 2.644426,0.17777 3.933417,0.4955 1.331991,0.28163 2.673951,0.41501 4.032198,0.50257 0,0 -4.325821,3.06143 -4.325821,3.06143 z"
         id="path3969"
         style="fill:#000000;fill-opacity:1" />
    </g>
    <g
       id="g4024"
       transform="translate(350.34451,148.84577)">
      <path
         inkscape:connector-curvature="0"
         d="m -28.557081,378.20552 c -1.336708,-0.28867 -2.649972,-0.6536 -4.004422,-0.85451 -1.529336,-0.31004 -3.080217,-0.4576 -4.636199,-0.53956 -1.214893,-0.0448 -2.41835,-0.235 -3.630693,-0.32627 -0.934388,-0.0617 -1.871086,-0.0699 -2.807143,-0.073 -0.887068,-0.003 -1.774136,0.002 -2.661201,8e-4 -0.897496,-0.0268 -1.778292,-0.005 -2.664743,0.13117 -1.019697,0.0571 -1.950817,0.47062 -2.904287,0.80162 -0.953198,0.28806 -1.929447,0.47612 -2.830436,0.91007 -0.134256,0.0812 -0.266755,0.16539 -0.402769,0.24362 -2.453404,1.41102 5.716382,-3.44878 3.352514,-1.91893 -0.139384,0.0902 -0.275293,0.1857 -0.414405,0.27633 -0.138218,0.09 -0.278359,0.17709 -0.417539,0.26564 -0.863339,0.47997 -1.647266,1.07431 -2.394593,1.71617 -0.789044,0.639 -1.440464,1.38899 -2.02853,2.21042 -0.58772,0.77068 -1.150807,1.55647 -1.684672,2.36527 -0.530512,0.81555 -1.030845,1.65137 -1.494716,2.50654 -0.555924,0.98898 -1.156847,1.95395 -1.622847,2.98997 -0.422483,0.91487 -0.635117,1.89977 -0.949511,2.85219 -0.328848,0.94783 -0.484288,1.93668 -0.563776,2.93278 -0.05377,0.88983 -0.05231,1.78163 -0.04935,2.67269 -0.06809,1.04311 0.252137,2.02218 0.662221,2.96529 0.53887,1.01099 1.128135,1.99475 1.795729,2.92584 0.730777,0.87843 1.352651,1.83711 2.032101,2.75353 0.686749,1.00882 1.365421,2.01879 2.131942,2.96961 0.669483,0.80746 1.405679,1.55563 2.142406,2.30101 0.676887,0.65594 1.494683,1.11 2.305307,1.57377 0.910818,0.45004 1.871907,0.81456 2.870072,1.01266 0.903896,0.16613 1.796548,0.35405 2.71358,0.44242 0.882111,0.0707 1.76775,0.068 2.652021,0.0731 0.895359,-10e-4 1.790718,-10e-4 2.686076,-0.003 0.889772,5.1e-4 1.77956,-0.003 2.669331,-8.4e-4 0.923199,0.0469 1.780464,-0.34283 2.632705,-0.64594 0.872799,-0.38577 1.790247,-0.62121 2.736835,-0.71909 0.88942,-0.10297 1.767008,-0.27118 2.661837,-0.35189 1.060671,0.0129 1.982761,-0.48124 2.929276,-0.88675 0.952527,-0.37042 1.90796,-0.70606 2.782825,-1.24175 -7.815947,4.48983 -3.972205,2.34922 -2.281773,1.16774 0.579084,-0.47589 -0.03769,-0.44547 -0.459148,-0.61371 -0.907363,-0.19443 -1.735262,-0.51181 -2.527384,-0.99641 -0.784813,-0.4646 -1.552042,-0.96542 -2.290773,-1.501 -0.697087,-0.60734 -1.514836,-1.02175 -2.325341,-1.4513 -0.970488,-0.52421 -1.861266,-1.17867 -2.637739,-1.96038 -0.696309,-0.71122 -1.397661,-1.40903 -2.054892,-2.15764 -0.647993,-0.76118 -1.138465,-1.61392 -1.540247,-2.52453 -0.332028,-0.88561 -0.563765,-1.80821 -0.740641,-2.73652 -0.16752,-1.07231 -0.15203,-2.16435 -0.168489,-3.24704 -0.0082,-0.98763 -0.01326,-1.97541 -0.0087,-2.96308 -0.08309,-1.12972 0.3521,-2.16577 0.715749,-3.20984 0.405985,-1.26536 1.10044,-2.40461 1.750649,-3.55428 0.485099,-0.92742 1.045923,-1.80099 1.689227,-2.62563 0.706191,-0.94227 1.547154,-1.7685 2.382012,-2.59444 0.480757,-0.47507 1.00633,-0.89774 1.593765,-1.23351 4.994693,-2.85498 3.169519,-2.16829 5.375996,-2.96531 0.762381,-0.38513 1.506475,-0.73728 2.355109,-0.87555 0,0 -4.208418,3.20105 -4.208418,3.20105 l 0,0 c -0.801504,0.2305 -1.527891,0.62463 -2.296139,0.94297 -1.841809,0.84975 -0.450399,0.22305 3.695833,-2.19679 0.142591,-0.0832 -0.287337,0.1627 -0.431701,0.24281 -0.577807,0.3206 -0.300727,0.12773 -0.818295,0.54632 -0.134601,0.10886 -0.268244,0.2189 -0.402366,0.32836 -0.832134,0.81218 -1.699819,1.6054 -2.400702,2.53663 -0.662818,0.79302 -1.252678,1.62664 -1.727855,2.54652 -0.636532,1.13883 -1.391478,2.22898 -1.805252,3.47626 -0.340524,0.98542 -0.803704,1.97656 -0.763868,3.03884 8.94e-4,0.98831 -0.01164,1.9766 -0.0082,2.96493 0.0044,1.05375 0.0038,2.11287 0.146336,3.15892 0.149686,0.89458 0.378429,1.77521 0.672594,2.63296 0.37293,0.86591 0.845115,1.66424 1.464773,2.37937 0.647994,0.73687 1.333108,1.43277 2.020354,2.13281 0.763319,0.72743 1.618869,1.3473 2.559869,1.82785 0.834772,0.4353 1.64955,0.89664 2.374382,1.50456 0.734974,0.51451 1.482486,1.01483 2.25944,1.46383 0.793387,0.43843 1.641343,0.65828 2.502447,0.92259 0.659362,0.27142 1.421983,0.76027 0.962551,1.56398 -1.338781,1.44346 -7.012831,3.38431 -6.725404,4.14164 -0.907068,0.466 -1.872048,0.79477 -2.81082,1.19046 -0.978509,0.4141 -1.963307,0.75792 -3.040954,0.77235 -0.88681,0.10095 -1.761556,0.27715 -2.649797,0.36699 -0.921185,0.16214 -1.803124,0.44982 -2.670069,0.80035 -0.88972,0.30731 -1.787596,0.57603 -2.741906,0.50548 -0.890098,0.003 -1.780211,-5.2e-4 -2.67031,0.002 -0.895704,1.6e-4 -1.791404,0.005 -2.687102,-8e-4 -0.89587,-0.006 -1.794025,-0.0192 -2.685319,-0.1178 -0.923102,-0.1179 -1.829646,-0.31412 -2.741963,-0.49483 -1.022439,-0.26121 -2.017155,-0.6476 -2.94791,-1.14538 -0.856771,-0.48028 -1.696897,-0.98369 -2.388463,-1.69415 -0.746625,-0.75993 -1.490375,-1.52515 -2.161214,-2.35409 -0.760196,-0.9629 -1.435791,-1.98316 -2.143568,-2.98417 -0.681028,-0.91759 -1.300965,-1.87924 -2.027023,-2.76352 -0.698214,-0.95485 -1.298402,-1.97345 -1.853315,-3.01774 -0.453623,-0.98867 -0.827392,-2.0437 -0.791233,-3.147 9.5e-4,-0.90362 -0.0075,-1.80799 0.03949,-2.71071 0.06609,-1.03527 0.199271,-2.06282 0.51423,-3.05615 0.326195,-0.9604 0.524305,-1.95224 0.934814,-2.88401 0.401855,-1.07208 1.027769,-2.04028 1.597646,-3.0295 0.436645,-0.88345 0.959261,-1.7195 1.470484,-2.56092 0.547156,-0.80318 1.052028,-1.63461 1.681244,-2.38008 0.594641,-0.83895 1.158655,-1.6769 1.979857,-2.32028 0.733569,-0.66744 1.490315,-1.31585 2.358186,-1.80545 0.419252,-0.23758 0.792858,-0.53773 1.205492,-0.78011 1.860404,-1.09283 3.761287,-2.30628 5.739131,-3.25677 0.930367,-0.34683 1.90339,-0.55055 2.841788,-0.87406 0.972435,-0.34007 1.946922,-0.65948 2.983514,-0.72718 0.899323,-0.10078 1.801303,-0.0756 2.705061,-0.075 0.888274,-0.003 1.776609,-0.002 2.664869,0.002 0.940451,0.0114 1.881476,0.0282 2.818738,0.11398 1.199554,0.11083 2.392704,0.29331 3.598109,0.33557 1.562827,0.11177 3.116763,0.29065 4.65692,0.58467 1.345517,0.22119 2.654485,0.64223 4.016537,0.74542 0,0 -4.287777,3.11525 -4.287777,3.11525 z"
         id="path3981"
         style="fill:#000000;fill-opacity:1" />
      <path
         inkscape:connector-curvature="0"
         d="m -42.816836,396.30418 c -0.64317,-1.04207 -1.459719,-1.92444 -2.405115,-2.69267 -0.792551,-0.6186 -1.658923,-1.12025 -2.597141,-1.47891 -0.661826,-0.14052 -1.308618,0.008 -1.916122,0.28365 -0.163832,0.0743 -0.634568,0.33889 -0.478295,0.24983 1.344267,-0.76609 2.695034,-1.52072 4.042552,-2.28108 -1.004325,0.62794 -1.439347,1.59646 -1.687903,2.70823 -0.166988,0.93532 -0.166142,1.88784 -0.163597,2.83453 0.01123,0.89013 -0.04793,1.78275 0.130985,2.65879 0.345863,0.99107 1.171234,1.45507 2.098257,1.81212 0.954009,0.32736 1.958683,0.38679 2.957659,0.41711 0.591822,-0.041 1.222218,0.11012 1.803311,-0.0578 0.358442,-0.10355 0.603552,-0.28911 0.918545,-0.48436 -7.089023,4.08004 -4.226012,2.7627 -3.022197,1.24587 0.373015,-0.47001 0.644159,-1.00112 0.911355,-1.53436 0.255199,-0.61593 0.142172,-0.30416 0.339783,-0.93505 0,0 4.759265,-2.26596 4.759265,-2.26596 l 0,0 c -0.167355,0.69365 -0.06435,0.35254 -0.309078,1.02333 -1.529236,3.35921 -2.89146,3.52385 -6.782759,5.75721 -1.044886,0.44404 -1.793426,0.39149 -2.902593,0.33417 -1.039241,-0.0629 -2.076947,-0.18059 -3.050038,-0.57853 -1.057945,-0.47719 -1.9458,-1.10231 -2.370475,-2.23286 -0.224688,-0.91045 -0.191038,-1.82724 -0.189238,-2.76055 2.82e-4,-0.97974 -0.0099,-1.9645 0.133589,-2.93628 0.208161,-1.17496 0.536131,-2.32441 1.524672,-3.08737 0.955783,-0.55818 4.350428,-3.28926 6.599345,-3.29243 0.463785,-6.6e-4 0.596906,0.0679 1.040449,0.18893 0.960564,0.4226 1.856558,0.95884 2.673749,1.62083 0.961581,0.8244 1.767266,1.78272 2.518657,2.80123 0,0 -4.577622,2.68235 -4.577622,2.68235 z"
         id="path3985"
         style="fill:#000000;fill-opacity:1" />
      <path
         inkscape:connector-curvature="0"
         d="m -55.699938,397.84838 c -1.311206,-0.0291 -2.623036,-0.0179 -3.934479,-0.0134 -0.998663,0.006 -1.997339,0.006 -2.996013,0.009 -0.899045,-7e-4 -1.798088,-5.6e-4 -2.697132,-7e-4 -0.536377,0.082 -1.167524,-0.14806 -1.683523,0.0712 -0.08064,0.0343 -0.279216,0.21014 -0.202907,0.16709 1.480753,-0.83544 2.946379,-1.69742 4.419568,-2.54613 0.02721,0.79197 0.935978,1.0464 1.574283,1.1871 1.102424,0.22301 2.20969,0.15807 3.319655,0.0658 1.454913,-0.2364 2.877932,-0.614 4.340797,-0.80649 1.126945,-0.11911 2.23528,-0.35504 3.365227,-0.45275 0.916782,-0.0744 1.836816,-0.0754 2.755888,-0.0802 0,0 -4.271802,3.10807 -4.271802,3.10807 l 0,0 c -0.907245,0.008 -1.815672,0.0241 -2.719123,0.11489 -1.112472,0.12952 -2.214819,0.3296 -3.328215,0.45241 -1.459841,0.22715 -2.8909,0.60927 -4.35943,0.77896 -1.156918,0.0875 -2.317082,0.0929 -3.450266,-0.19804 -0.963192,-0.31425 -1.778984,-0.82274 -2.020623,-1.87511 4.408021,-2.94903 3.221738,-3.1415 6.532974,-3.09096 0.899686,-1.4e-4 1.79937,-1e-5 2.699056,-7e-4 0.990802,0.003 1.981607,0.003 2.972399,0.009 1.323771,0.005 2.647894,0.0152 3.971443,-0.0134 0,0 -4.287777,3.11525 -4.287777,3.11525 z"
         id="path3991"
         style="fill:#000000;fill-opacity:1" />
    </g>
    <path
       style="fill:#000000;fill-opacity:1"
       id="path3034"
       d="m 296.01631,474.21649 c -1.23719,-0.48625 -2.4802,-0.96203 -3.7724,-1.28193 -1.06929,-0.20545 -2.15015,-0.25669 -3.22337,-0.43765 -1.25937,-0.18212 -2.53147,-0.23867 -3.80201,-0.27117 -1.29765,-0.008 -2.59826,-0.14897 -3.85721,0.21629 -1.81221,0.96747 -4.81098,2.34837 3.55493,-2.03604 0.12252,-0.0642 -0.19868,0.19883 -0.262,0.32181 -0.15788,0.30662 -0.0948,0.43469 -0.0543,0.74958 0.3643,0.96932 1.34958,1.3579 2.17799,1.8545 0.94588,0.67654 1.92656,1.28494 2.97766,1.78393 1.1389,0.28457 2.23857,0.69539 3.36471,1.02543 1.2436,0.33467 2.5378,0.38322 3.81641,0.31218 1.83366,-0.1936 3.54076,-0.9017 5.13577,-1.79379 -7.94944,4.45988 -4.52153,2.83536 -3.02526,1.51862 0.53506,-0.47085 1.00922,-0.99811 1.4713,-1.53848 0.13415,-0.18229 0.2683,-0.36457 0.40244,-0.54685 0,0 5.2983,-2.30699 5.2983,-2.30699 l 0,0 c -0.1276,0.19561 -0.25519,0.39121 -0.38278,0.58682 -2.17317,2.80593 -4.95303,4.25037 -8.24509,5.88842 -1.66328,0.83179 -3.41777,1.48308 -5.29332,1.58954 -1.33702,0.029 -2.68304,-0.0249 -3.96579,-0.44359 -1.14328,-0.36486 -2.29909,-0.6927 -3.42645,-1.0985 -1.04154,-0.5396 -2.01949,-1.17101 -2.99048,-1.82729 -0.99195,-0.583 -2.01632,-1.1228 -2.44896,-2.26406 -0.80083,-3.37973 3.78966,-4.25287 6.50744,-5.28394 1.30338,-0.21066 2.62384,-0.10501 3.93929,-0.0956 1.28966,0.0491 2.57835,0.13348 3.85602,0.32379 1.08277,0.1664 2.1873,0.19018 3.2468,0.49364 1.31485,0.37993 2.59479,0.87171 3.87444,1.35439 0,0 -4.87408,3.20698 -4.87408,3.20698 z"
       inkscape:connector-curvature="0" />
    <g
       id="g3922"
       transform="translate(753.51067,-87.283494)">
      <path
         inkscape:connector-curvature="0"
         d="m -261.58466,481.62974 c -6.56121,1.66966 -12.99548,3.86043 -19.37067,6.13493 -6.13015,2.16778 -12.56551,3.94869 -18.10674,7.47473 -0.87921,0.55947 -1.68801,1.22255 -2.53202,1.83382 -7.76782,7.29922 -13.91913,16.09883 -19.90573,24.8595 -5.35671,8.82787 -10.28694,17.9417 -14.18022,27.51996 -2.30146,5.66205 -3.27876,9.08938 -5.1435,14.90465 -3.98178,13.05085 -5.28507,26.62399 -5.94554,40.18373 -0.18539,6.28911 -0.34975,12.64775 0.92909,18.84619 0.76414,3.7037 1.24844,4.77365 2.45489,8.33032 2.98182,7.26032 7.77805,13.51316 14.1883,18.08676 1.49393,1.06589 3.11471,1.94178 4.67206,2.91268 13.20759,7.25286 28.0709,10.07207 42.73529,12.70068 19.9825,3.19402 40.24477,3.72738 60.43597,4.14107 3.37981,-0.002 6.76176,0.11366 10.13943,-0.007 0.27428,-0.01 -1.0248,-0.27533 -0.75537,-0.32766 2.96538,-0.57598 6.01263,-0.66818 8.97317,-1.26851 8.41825,-1.707 15.66311,-4.81135 23.4019,-8.34661 8.84669,-4.38894 16.25405,-10.69497 21.88618,-18.80335 3.36018,-4.83754 4.40514,-7.24722 7.08632,-12.41468 3.48458,-7.79628 6.04573,-15.96268 7.53035,-24.3732 0.85139,-4.82318 0.96245,-6.82728 1.44806,-11.66843 0.81686,-10.64304 0.7466,-21.32673 0.7631,-31.99339 -0.17074,-7.10661 0.24292,-14.24193 -0.32519,-21.33743 -0.35816,-4.47326 -0.67247,-5.74013 -1.41772,-10.08615 -0.94526,-6.58853 -2.79147,-11.99175 -6.16952,-17.65679 -2.30793,-3.33051 -5.32484,-6.02845 -8.52588,-8.46947 -3.09716,-2.58776 -6.46614,-4.80337 -9.74018,-7.15221 -3.2646,-1.65561 -6.26045,-3.65973 -9.17222,-5.86743 -2.83427,-1.81899 -5.83777,-3.4874 -8.97579,-4.73228 -3.49113,-1.38981 -7.13214,-2.34362 -10.82702,-3.00046 -3.33308,-0.59747 -6.538,-1.61935 -9.82355,-2.41448 -4.39373,-1.1609 -8.91995,-1.64063 -13.40863,-2.28052 -4.06096,-0.23945 -7.84145,-1.70799 -11.71359,-2.78627 -3.7622,-0.85934 -7.62624,-1.00132 -11.46791,-1.09645 -3.79683,-0.0541 -7.57171,-0.54941 -11.35987,-0.80622 -2.91187,-0.17533 -5.8293,-0.20428 -8.74549,-0.2184 -0.42126,-7.2e-4 -0.84252,-10e-4 -1.26377,-0.002 0.87637,-0.002 -3.4861,-5.2e-4 -2.61458,-3.5e-4 18.95889,0.004 12.0662,-0.25274 7.84401,0.21653 -3.26193,0.44665 -6.36207,1.50928 -9.33889,2.88133 -3.02324,1.61373 -6.1358,3.02344 -9.36073,4.17808 -1.4982,0.42136 -2.90882,1.04467 -4.30714,1.71503 0,0 -11.7957,-1.30092 -11.7957,-1.30092 l 0,0 c 1.38326,-0.75021 2.75852,-1.53146 4.31488,-1.87067 3.22642,-1.13749 6.41676,-2.3531 9.41184,-4.03297 2.93489,-1.54193 6.02623,-2.66229 9.29026,-3.28524 6.48816,-0.91505 13.05182,-0.29779 19.5862,-0.35286 2.90447,0.0313 5.80994,0.087 8.70772,0.3023 3.75994,0.29319 7.51328,0.74947 11.28883,0.76601 3.88101,0.13694 7.78476,0.36095 11.55191,1.38473 3.81401,1.1443 7.61012,2.3285 11.61089,2.63547 4.52171,0.65877 9.07163,1.19094 13.49296,2.39144 3.26597,0.85021 6.51935,1.71293 9.83725,2.34614 3.69993,0.76957 7.3549,1.78685 10.84689,3.24719 3.13211,1.39976 6.22592,2.99683 9.00311,5.01932 2.92743,2.16529 6.0249,3.99682 9.15647,5.8439 3.28384,2.35039 6.60949,4.64005 9.73629,7.20196 3.22437,2.58099 6.28094,5.41161 8.51575,8.92271 3.15788,5.62214 4.97896,11.67012 5.75402,18.0889 0.64692,4.09424 1.02948,6.02713 1.36562,10.21622 0.57099,7.11593 0.11878,14.26448 0.29701,21.3913 0.0389,10.70598 0.10018,21.43219 -0.82071,32.10873 -0.49418,4.74079 -0.64905,7.06168 -1.49739,11.78249 -1.52984,8.51321 -4.14185,16.78374 -7.68464,24.67279 -2.59941,4.98633 -3.94285,7.90904 -7.13485,12.60208 -5.63076,8.27863 -13.05244,14.83002 -22.01304,19.32748 -7.75766,3.58162 -15.22652,6.82105 -23.65176,8.6247 -12.91475,2.76474 -26.16997,1.48157 -39.26676,1.70041 -20.27482,-0.43796 -40.61953,-1.01251 -60.67751,-4.27259 -14.88859,-2.67548 -29.98901,-5.56789 -43.34041,-13.05457 -1.58259,-1.01618 -3.22833,-1.94015 -4.74776,-3.04855 -6.52334,-4.75868 -11.34236,-11.25533 -14.3575,-18.71177 -1.17635,-3.57304 -1.69781,-4.80475 -2.44907,-8.51847 -1.27153,-6.28564 -1.0003,-12.71886 -0.67197,-19.08348 0.72394,-13.66394 2.23398,-27.31999 6.24649,-40.46323 1.93457,-6.07234 2.77436,-9.10217 5.16133,-15.01902 3.88204,-9.62285 8.77033,-18.80055 14.04823,-27.7197 5.84604,-8.84964 11.86005,-17.69163 19.3162,-25.28566 0.8544,-0.66106 1.66324,-1.38562 2.56319,-1.98318 5.54918,-3.68461 12.1156,-5.46614 18.32665,-7.64061 3.95884,-1.45319 7.93021,-2.80867 11.93826,-4.11787 1.80918,-0.59096 3.57522,-1.31251 5.396,-1.86666 0.47904,-0.14579 0.98086,-0.20209 1.47129,-0.30313 0,0 11.88287,1.54447 11.88287,1.54447 z"
         id="path3091"
         style="fill:#000000;fill-opacity:1" />
      <path
         inkscape:connector-curvature="0"
         d="m -298.17303,505.8906 c 10.69334,-2.17027 21.58165,-3.40277 32.39972,-4.80898 17.26577,-2.19253 34.64909,-3.19027 52.02971,-3.88776 7.53784,-0.09 11.26977,-0.17857 20.31643,0.14991 2.95137,0.10717 5.69422,0.99027 7.92748,2.88559 1.82381,2.13855 3.11141,4.60154 4.38615,7.08474 0.43846,1.77815 2.82321,4.01372 2.39046,5.86238 -0.0874,0.37345 -0.34542,0.68492 -0.51813,1.02738 -0.36957,0.24767 -0.70295,0.56054 -1.10869,0.743 -2.69203,1.21058 -8.61266,0.91654 -11.58992,0.95708 -8.38418,0.0348 -16.76855,0.0189 -25.15277,-0.004 -1.27484,-0.004 -5.09698,-0.0889 -3.82451,-0.0111 2.29014,0.14012 4.58694,0.13202 6.88041,0.19803 -12.27477,1.07763 -24.39247,3.33339 -36.61972,4.79635 -12.30094,0.86922 -24.45002,2.99346 -36.49317,5.57521 -5.93186,1.29548 -11.87158,2.47173 -17.59493,4.52582 -0.36924,-0.3404 -6.61249,3.35889 -3.81433,2.65175 11.02634,0.86198 22.12287,0.66944 33.17592,0.72737 23.11896,0.0955 46.23817,0.0599 69.35719,0.0109 15.67686,0.48913 31.61879,-1.44882 47.1263,1.48297 4.8668,0.78279 9.48675,2.56824 13.99185,4.5135 1.1892,0.35793 3.85543,2.21584 1.61485,3.40772 -0.33584,0.17866 -0.74664,0.14612 -1.11996,0.21919 -9.21307,0.36107 -18.461,0.18244 -27.67653,0.1769 -10.9779,-0.0361 -21.95586,-0.0466 -32.93381,-0.0609 -13.80432,-0.009 -27.60865,-0.009 -41.41298,-0.002 -2.12812,8.8e-4 -4.25625,-0.003 -6.38437,0.003 -1.5889,0.004 6.35561,-0.007 4.76673,0.002 -7.07907,0.0384 -14.15462,-0.0392 -21.23235,0.12423 -5.93164,0.25952 -11.87288,0.41691 -17.77934,1.0467 -3.82602,0.63059 -7.46182,2.0236 -11.13405,3.21756 -3.34645,1.06946 -6.68451,2.03577 -9.8626,3.54804 -3.13866,1.44237 -5.94466,3.45363 -8.77711,5.40296 0.38098,0.52791 -1.69576,0.6776 -1.58958,1.36871 0.0265,0.1725 0.32463,-0.15302 0.49908,-0.15836 0.58928,-0.018 1.1784,0.0466 1.76642,0.0891 7.01423,0.50761 -1.14222,0.0723 8.07442,0.49356 16.65902,0.42878 33.32669,0.37122 49.99,0.36643 -0.7439,-0.003 -2.97561,-0.007 -2.2317,-0.009 8.3222,-0.0286 18.54375,-0.0226 26.28955,0.23646 5.88984,0.19698 11.83389,1.18564 17.67903,1.89928 5.1869,0.82286 10.46506,1.26745 15.56375,2.58924 1.30926,0.33941 4.28945,1.33157 5.63227,1.76951 4.17577,1.4656 8.52787,2.31994 12.74081,3.64803 3.12514,1.11858 5.98162,2.86402 9.11712,3.94124 3.22672,0.53497 4.4765,2.04273 6.19322,4.61277 1.38702,3.33304 -0.004,4.22368 -3.1514,4.88645 -10.1517,0.74945 -20.40966,0.34669 -30.57054,0.25446 -13.77197,-0.61907 -27.56,-0.56873 -41.33317,-1.10988 -13.1396,-0.6122 -26.27871,-1.23761 -39.43239,-1.37923 -1.78872,-0.0193 3.57754,0.0268 5.36631,0.0403 -4.97603,0.15057 -10.02388,0.0825 -14.9593,0.86256 -1.86716,0.29511 -3.36145,0.73402 -5.1772,1.21128 -3.96092,1.08564 -5.1002,1.94401 -7.01069,5.3717 -0.33258,1.16203 -2.30728,3.65834 -1.02813,4.80872 0.92289,0.82999 3.75799,1.09982 4.45257,1.23148 17.29777,1.67124 34.73318,1.44327 52.09585,1.52615 10.69577,0.38215 21.41406,0.40297 32.10454,0.94128 8.52702,0.42937 17.03927,1.30843 25.53988,2.08233 7.8672,0.78557 15.73355,1.98199 23.32885,4.21687 6.08828,1.56423 12.32217,2.58688 18.30223,4.53852 1.98691,0.78788 6.50993,3.06764 2.90932,5.43865 -0.44534,0.29326 -0.98468,0.40953 -1.47702,0.6143 -6.00103,1.16226 -12.18756,1.0022 -18.27707,1.04005 -16.35908,0.0128 -32.71815,-0.0301 -49.07719,-0.0606 -18.43413,-0.0243 -36.86827,-0.0395 -55.30241,-0.0233 -7.29144,0.009 -14.58289,0.0162 -21.87432,0.0304 -1.80287,0.004 -7.21119,-0.0175 -5.40858,0.013 2.0894,0.0354 12.08098,-0.005 3.64101,0.0242 -0.72707,0.0808 -5.64439,-0.018 -6.08094,0.98722 -0.1643,0.37832 0.53748,0.63093 0.85382,0.89559 4.7523,3.50581 10.55186,5.12644 16.23011,6.39007 8.68806,1.55543 17.3361,3.2545 26.1084,4.2874 6.84136,0.7157 13.72437,0.76757 20.59526,0.81307 3.39951,-0.33372 16.96487,0.60449 0.11716,-0.0975 -1.13178,-0.0472 2.26487,-0.07 3.39762,-0.0667 14.42351,0.0418 9.61418,-0.77794 16.07131,0.48147 0.2822,0.23706 0.70629,0.37036 0.84661,0.71116 0.99964,2.42787 -3.67331,3.95565 -5.08064,4.53471 -3.54894,1.24734 -7.2344,2.09884 -10.94477,2.69767 -4.25116,0.58225 -8.54992,0.49539 -12.82587,0.70006 -4.18155,0.3065 -8.3632,0.61191 -12.55235,0.79266 -2.25254,0.2802 -1.14202,0.12379 -3.33191,0.46674 0,0 -11.74173,-1.6821 -11.74173,-1.6821 l 0,0 c 2.21805,-0.31369 1.09613,-0.11844 3.36444,-0.59328 4.22021,-0.14134 8.43543,-0.39985 12.64323,-0.75381 4.24097,-0.29927 8.50509,-0.13496 12.73696,-0.61058 3.69258,-0.48372 7.32789,-1.34104 10.88968,-2.4247 0.31543,-0.12207 2.58268,-0.98943 2.97697,-1.17831 0.37511,-0.1797 0.71704,-0.4221 1.0832,-0.6194 0.22821,-0.12296 0.4429,-0.30062 0.69898,-0.3409 0.0861,-0.0135 0.24859,0.21341 0.16177,0.2055 -0.22932,-0.0209 -0.42946,-0.1663 -0.64419,-0.24945 -4.61344,-0.64492 -2.229,-0.22466 7.08895,-0.34324 1.15102,-0.0146 -2.30208,0.0262 -3.45314,0.0374 -7.64022,0.0739 -15.27962,0.18732 -22.92016,0.13266 -6.86891,-0.0538 -13.75069,-0.14433 -20.58153,-0.95014 -8.74333,-1.13063 -17.38328,-2.84179 -26.05416,-4.41568 -5.87474,-1.40379 -12.10782,-3.09486 -16.79493,-7.10229 -0.25107,-0.39091 -0.59804,-0.73483 -0.75323,-1.17274 -1.27108,-3.58666 4.55776,-3.23594 6.44846,-3.3454 15.22371,0.0497 30.44769,0.0278 45.67145,0.0692 18.47212,0.0197 36.94425,0.007 55.41638,0.006 7.49277,-0.004 14.98702,0.0325 22.47969,-0.009 1.70915,-0.01 -6.53714,0.96075 -5.12751,-0.006 2.65738,-1.82211 6.9401,1.59083 9.66621,-0.0226 5.95084,-0.0428 11.93558,0.0224 17.84851,-0.73767 1.01003,-0.23033 2.61415,-0.42835 2.55004,-0.78623 -0.23522,-1.31293 -3.0356,-1.75012 -3.76342,-2.30439 -6.02486,-1.82215 -12.23428,-2.93443 -18.32793,-4.50177 -7.38651,-2.01486 -14.93541,-3.39126 -22.56091,-4.11462 -8.35241,-0.80015 -16.71209,-1.66089 -25.09469,-2.08448 -10.65399,-0.53836 -21.33376,-0.60193 -31.99446,-0.92875 -10.521,-0.0477 -21.04396,-0.0687 -31.56299,-0.30389 -4.67159,-0.10447 -11.47085,-0.28263 -16.26659,-0.67388 -1.83466,-0.14967 -3.65723,-0.42211 -5.48584,-0.63317 -2.01791,-0.59918 -3.70362,-0.5427 -4.86788,-2.41861 -1.12827,-1.81792 0.48074,-4.05954 1.03242,-5.75858 2.00808,-3.6946 2.93647,-5.08394 7.30155,-6.29986 1.21875,-0.33573 4.07784,-1.14961 5.27564,-1.36729 5.05388,-0.91845 10.27873,-0.74762 15.38377,-0.9305 5.43493,-0.003 16.34923,-0.0969 23.18062,0.0875 10.88029,0.29368 21.74915,0.95415 32.62524,1.35668 13.99454,0.48593 28.00086,0.44967 41.99473,0.99798 -2.3535,0.0345 -4.70779,0.033 -7.06048,0.1034 -1.30662,0.0391 2.61441,-0.003 3.92161,-0.009 3.54754,-0.0168 7.10115,-0.0161 10.64187,-0.263 1.98103,-0.2063 4.41341,0.20829 3.02008,-2.49028 -1.81982,-2.509 -3.10586,-3.11013 -6.10907,-3.89992 -3.03208,-1.24029 -5.90466,-2.86418 -9.0328,-3.87387 -4.20447,-1.22717 -8.47396,-2.23536 -12.61322,-3.68635 -6.76453,-2.17825 -13.73146,-3.36569 -20.78622,-4.19381 -2.75572,-0.34567 -8.14147,-1.03713 -10.80869,-1.3027 -2.1586,-0.21492 -4.37312,-0.0532 -6.48444,-0.55129 -1.03941,-0.24521 4.26279,-0.17511 3.19598,-0.22452 -9.00531,-0.41702 -18.05279,0.99285 -27.04488,-10e-4 -16.86779,-0.0108 -33.73899,0.0525 -50.60351,-0.32264 -1.41041,-0.0673 -16.15283,0.2728 -9.38024,-4.66183 2.86879,-1.97828 5.71127,-4.02331 8.84626,-5.56901 3.18333,-1.62345 6.46857,-2.72726 9.89337,-3.72885 3.74213,-1.12353 7.38093,-2.60631 11.21193,-3.43804 6.04825,-0.67933 12.12788,-0.84096 18.20787,-1.08003 15.0003,-0.40574 30.01699,0.10252 45.01988,-0.11324 13.7963,0.008 27.59261,0.008 41.38891,0.006 11.13761,-0.007 22.27523,-0.008 33.41284,-0.0143 -18.23491,-0.005 0.50541,0.0474 4.45206,-0.10869 0.34217,-0.008 0.69268,-0.0995 1.02651,-0.024 0.31858,0.072 0.89154,0.45891 0.67876,0.70673 -0.0654,0.0762 -0.15525,-0.128 -0.23942,-0.18274 -0.81512,-0.53012 -0.87458,-0.51324 -1.89005,-1.01063 -4.42684,-1.85269 -8.92666,-3.56864 -13.69926,-4.29153 -1.12113,-0.20068 -2.23651,-0.43677 -3.3634,-0.60205 -1.33636,-0.19601 -5.28532,-1.6e-4 -4.02329,-0.48138 1.92297,-0.73325 7.01148,1.5406 6.16497,-0.33527 -0.86717,-1.92165 -4.21649,-0.0133 -6.32474,-0.0188 -7.62151,-0.0199 -9.9546,-0.0223 -17.94477,-0.0365 -29.94632,-0.0355 -59.89267,-0.0189 -89.839,0.007 -5.22892,-0.005 -14.2466,-0.003 -19.71501,-0.048 -4.03046,-0.0333 -9.45813,0.22698 -13.51567,-0.57445 -0.54216,-0.10708 -1.04368,-0.36379 -1.56552,-0.54569 -0.25451,-0.36618 -0.62236,-0.67554 -0.76352,-1.09855 -0.66787,-2.00135 3.57692,-3.6749 4.79214,-4.18603 5.89532,-2.10887 11.96303,-3.42258 18.10697,-4.61518 12.13496,-2.57651 24.371,-4.80153 36.76505,-5.64101 12.12163,-1.41821 24.1235,-3.6413 36.26323,-4.9238 5.25984,-0.09 10.5194,-0.19928 15.77954,-0.26997 1.28532,-0.0173 2.57088,0.004 3.85632,0.006 1.21401,0.002 4.85603,0.005 3.64202,0.007 -16.75453,0.0351 -4.96864,-0.007 -1.41384,-0.01 4.08602,-0.0418 8.21552,0.0293 12.25127,-0.69978 0.16488,-0.0785 0.39226,-0.0843 0.49463,-0.23551 0.44824,-0.66222 -2.03719,-4.34176 -2.28843,-5.27149 -1.23732,-2.32822 -2.41839,-4.71879 -4.35392,-6.56705 -1.44145,-0.97593 -2.83372,-1.54519 -4.5721,-1.86218 -0.94769,-0.1728 -3.82152,-0.25211 -2.8658,-0.37286 1.92806,-0.24361 14.96723,-0.18312 2.00977,-0.19573 -17.52399,0.57234 -35.05309,1.50164 -52.45688,3.71933 -10.36684,1.39264 -20.75395,2.80365 -31.02498,4.77739 0,0 -11.90757,-1.49509 -11.90757,-1.49509 z"
         id="path3099"
         style="fill:#000000;fill-opacity:1" />
    </g>
    <g
       id="g3891"
       transform="matrix(1.3570192,0,0,1.3570192,-65.751639,-241.56358)"
       inkscape:export-xdpi="90"
       inkscape:export-ydpi="90">
      <path
         inkscape:export-ydpi="90"
         inkscape:export-xdpi="90"
         inkscape:export-filename="/home/alfred/Desktop/path3094-8.png"
         sodipodi:nodetypes="ccccccccccccccccc"
         inkscape:connector-curvature="0"
         id="path3070"
         d="m 153.57143,361.40763 -25.28206,0 -11.8608,13.09741 0,11.90387 11.8608,12.62691 12.87945,0 0,12.6269 -12.87945,0 -11.8608,12.12183 24.74025,0 12.40261,-12.12183 0,-12.6269 -12.40261,-12.62691 -12.87945,0 0,-11.90387 12.87945,0 12.40261,-13.09741"
         style="fill:#000000;fill-opacity:1;stroke:#000000;stroke-width:1px;stroke-linecap:butt;stroke-linejoin:miter;stroke-opacity:1" />
      <path
         inkscape:export-ydpi="90"
         inkscape:export-xdpi="90"
         inkscape:export-filename="/home/alfred/Desktop/path3094-8.png"
         sodipodi:nodetypes="ccccccccccc"
         inkscape:connector-curvature="0"
         id="path3092"
         d="m 191.16882,361.40763 -12.87945,0 -11.8608,13.09741 0,49.27951 11.8608,-12.12183 0,-37.15768 12.87945,0 0,24.53078 12.40261,-12.62691 0,-11.90387 z"
         style="fill:#000000;fill-opacity:1;stroke:#000000;stroke-width:1px;stroke-linecap:butt;stroke-linejoin:miter;stroke-opacity:1" />
      <path
         inkscape:export-ydpi="90"
         inkscape:export-xdpi="90"
         sodipodi:nodetypes="cccccccccccccccc"
         inkscape:connector-curvature="0"
         id="path3094"
         d="m 228.28937,374.1479 0,11.90387 12.87963,0 0,-11.90359 12.40243,0 0,37.1574 -12.40261,12.12183 0,-24.74873 -12.87945,0 0,12.6269 -11.8608,12.12183 0,-49.27951 11.8608,-13.09741 25.28206,0 -12.40243,13.05222 z"
         style="fill:#000000;fill-opacity:1;stroke:#000000;stroke-width:1px;stroke-linecap:butt;stroke-linejoin:miter;stroke-opacity:1" />
      <path
         inkscape:export-ydpi="90"
         inkscape:export-xdpi="90"
         inkscape:export-filename="/home/alfred/Desktop/path3094-8.png"
         sodipodi:nodetypes="ccccccccccc"
         inkscape:connector-curvature="0"
         id="path3096"
         d="m 302.5,361.90763 -25.28206,0 -11.8608,13.09741 0,37.15768 11.8608,12.12183 12.87945,0 12.40261,-12.12183 -25.28206,0 0,-37.15768 12.87945,0 z"
         style="fill:#000000;fill-opacity:1;stroke:#000000;stroke-width:1px;stroke-linecap:butt;stroke-linejoin:miter;stroke-opacity:1" />
      <path
         inkscape:export-ydpi="90"
         inkscape:export-xdpi="90"
         inkscape:export-filename="/home/alfred/Desktop/path3094-8.png"
         sodipodi:nodetypes="cccccccccccccc"
         inkscape:connector-curvature="0"
         id="path3098"
         d="m 351.07143,360.69334 -25.28206,0 -11.8608,13.09741 0,37.15768 11.8608,12.12183 12.87945,0 12.40261,-12.12183 -25.28206,0 0,-12.6269 12.87945,-12.62691 -12.87945,0 0,-11.90387 12.87945,0 12.40261,-13.09741"
         style="fill:#000000;fill-opacity:1;stroke:#000000;stroke-width:1px;stroke-linecap:butt;stroke-linejoin:miter;stroke-opacity:1" />
      <path
         inkscape:export-ydpi="90"
         inkscape:export-xdpi="90"
         inkscape:export-filename="/home/alfred/Desktop/path3094-8.png"
         sodipodi:nodetypes="ccccccccccccc"
         inkscape:connector-curvature="0"
         id="path3100"
         d="m 413.92857,361.40763 -12.5,13.09741 0,37.15768 -12.40261,-12.6269 -12.87945,12.6269 0,-50.25509 -11.8608,13.09741 0,37.15768 11.8608,12.12183 12.87945,-12.12183 12.40261,12.12183 12.5,-12.12183 z"
         style="fill:#000000;fill-opacity:1;stroke:#000000;stroke-width:1px;stroke-linecap:butt;stroke-linejoin:miter;stroke-opacity:1" />
      <path
         inkscape:export-ydpi="90"
         inkscape:export-xdpi="90"
         inkscape:export-filename="/home/alfred/Desktop/path3094-8.png"
         sodipodi:nodetypes="ccccccccccccccc"
         inkscape:connector-curvature="0"
         id="path3127"
         d="m 499.74025,361.40763 -12.87945,0 -11.8608,13.09741 0,49.27951 11.8608,-12.12183 0,-12.6269 25.28206,24.74873 0,-12.12183 -25.28206,-25.25381 0,-11.90387 12.87945,0 0,24.53078 12.40261,-12.62691 0,-11.90387 z"
         style="fill:#000000;fill-opacity:1;stroke:#000000;stroke-width:1px;stroke-linecap:butt;stroke-linejoin:miter;stroke-opacity:1" />
      <path
         inkscape:export-ydpi="90"
         inkscape:export-xdpi="90"
         sodipodi:nodetypes="cccccccccccccccc"
         inkscape:connector-curvature="0"
         id="path3094-8"
         d="m 436.50365,374.62827 0,11.90387 12.87963,0 0,-11.90359 12.40243,0 0,37.1574 -12.40261,12.12183 0,-24.74873 -12.87945,0 0,12.6269 -11.8608,12.12183 0,-49.27951 11.8608,-13.09741 25.28206,0 -12.40243,13.05222 z"
         style="fill:#000000;fill-opacity:1;stroke:#000000;stroke-width:1px;stroke-linecap:butt;stroke-linejoin:miter;stroke-opacity:1" />
    </g>
  </g>
</svg>
